<?xml version="1.0" encoding="UTF-8"?>
<svg width="75px" height="79px" viewBox="0 0 75 79" version="1.1" xmlns="http://www.w3.org/2000/svg" xmlns:xlink="http://www.w3.org/1999/xlink">
    <!-- Generator: Sketch 40.2 (33826) - http://www.bohemiancoding.com/sketch -->
    <title>TeliaNextIoTLab</title>
    <desc>Created with Sketch.</desc>
    <defs></defs>
    <g id="Page-1" stroke="none" stroke-width="1" fill="none" fill-rule="evenodd">
        <g id="Chip" transform="translate(1.000000, 1.000000)">
            <text id="Telia-Next-IoT-Lab" transform="translate(47.080392, 16.517962) rotate(25.000000) translate(-47.080392, -16.517962) " font-family="AmericanTypewriter, American Typewriter" font-size="3" font-weight="normal" fill="#979797">
                <tspan x="33.5803916" y="17.5179621">Telia Next IoT Lab</tspan>
            </text>
            <path d="M38.9946034,8.66558751 L40.4324533,8.66588607 L56.4317755,8.66443244 L56.4317755,13.4586415 L62.175095,13.4586415 L62.175095,14.4586415 L56.4317755,14.4586415 L56.4317755,18.4586415 L62.175095,18.4586415 L62.175095,19.4586415 L56.4317755,19.4586415 L56.4317755,23.4586415 L62.175095,23.4586415 L62.175095,24.4586415 L56.4317755,24.4586415 L56.4317755,28.4586415 L62.175095,28.4586415 L62.175095,29.4586415 L56.4317755,29.4586415 L56.4317755,33.4586415 L62.175095,33.4586415 L62.175095,34.4586415 L56.4317755,34.4586415 L56.4317755,38.4586415 L62.175095,38.4586415 L62.175095,39.4586415 L56.4317755,39.4586415 L56.4317755,43.4586415 L62.175095,43.4586415 L62.175095,44.4586415 L56.4317755,44.4586415 L56.4317755,48.4586415 L62.175095,48.4586415 L62.175095,49.4586415 L56.4317755,49.4586415 L56.4317755,53.4586415 L62.175095,53.4586415 L62.175095,54.4586415 L56.4317755,54.4586415 L56.4317755,58.4586415 L62.175095,58.4586415 L62.175095,59.4586415 L56.4317755,59.4586415 L56.4317755,63.4586415 L62.175095,63.4586415 L62.175095,64.4586415 L56.4317755,64.4586415 L56.4317755,68.6644324 L16.4317755,68.6644324 L16.4317755,64.4586415 L10.2698669,64.4586415 L10.2698669,63.4586415 L16.4317755,63.4586415 L16.4317755,59.4586415 L10.2698669,59.4586415 L10.2698669,58.4586415 L16.4317755,58.4586415 L16.4317755,54.4586415 L10.2698669,54.4586415 L10.2698669,53.4586415 L16.4317755,53.4586415 L16.4317755,49.4586415 L10.2698669,49.4586415 L10.2698669,48.4586415 L16.4317755,48.4586415 L16.4317755,44.4586415 L10.2698669,44.4586415 L10.2698669,43.4586415 L16.4317755,43.4586415 L16.4317755,39.4586415 L10.2698669,39.4586415 L10.2698669,38.4586415 L16.4317755,38.4586415 L16.4317755,34.4586415 L10.2698669,34.4586415 L10.2698669,33.4586415 L16.4317755,33.4586415 L16.4317755,29.4586415 L10.2698669,29.4586415 L10.2698669,28.4586415 L16.4317755,28.4586415 L16.4317755,24.4586415 L10.2698669,24.4586415 L10.2698669,23.4586415 L16.4317755,23.4586415 L16.4317755,19.4586415 L10.2698669,19.4586415 L10.2698669,18.4586415 L16.4317755,18.4586415 L16.4317755,14.4586415 L10.2698669,14.4586415 L10.2698669,13.4586415 L16.4317755,13.4586415 L16.4317755,8.66443244 L33.4317755,8.66443244 L34.0053291,8.66455153 C34.0900588,9.96855679 35.1745762,11 36.5,11 C37.8250728,11 38.9093667,9.96910304 38.9946034,8.66558751 L38.9946034,8.66558751 Z" stroke="#979797" transform="translate(36.222481, 38.664432) rotate(25.000000) translate(-36.222481, -38.664432) "></path>
            <path d="M48.9435464,41.3943328 C52.3242411,40.7011332 55.1956187,41.8130171 55.1956187,41.8130171 L41.0835117,72.0765281 L8,56.6494332 L13.7515704,44.3151507 C13.7515704,44.3151507 18.7426831,41 22.3524429,41 C23.9666026,41 25.8927308,41.4622544 27.7456588,42.0709148 C27.7725098,41.983827 27.8056349,41.8975416 27.8452365,41.8126156 C28.3120478,40.8115356 29.5020087,40.3784253 30.5030886,40.8452365 C31.4996839,41.3099565 31.933387,42.4913616 31.4766872,43.4896233 C33.0871982,44.171505 34.320467,44.7669284 34.7443562,44.9215293 C39.002197,46.47445 42.375353,44.9215293 45.2220034,42.9689199 C45.2426667,42.9547462 45.2633421,42.9406753 45.2840292,42.9267065 C43.6944247,42.5962739 42.5,41.1876234 42.5,39.5 C42.5,37.5670034 44.0670034,36 46,36 C47.9329966,36 49.5,37.5670034 49.5,39.5 C49.5,40.1980205 49.2956644,40.8483159 48.9435464,41.3943328 Z" id="Water-with-bobbles" stroke="#990AE3" fill="#990AE3"></path>
            <g id="Bobbles" transform="translate(23.000000, 16.000000)">
                <circle id="Oval" stroke="#FFFFFF" fill="#FFFFFF" cx="1.5" cy="34.5" r="1.5"></circle>
                <circle id="Oval-2" stroke="#FFFFFF" fill="#FFFFFF" cx="10" cy="43" r="1"></circle>
                <circle id="Oval-3" stroke="#FFFFFF" fill="#FFFFFF" cx="14.5" cy="36.5" r="0.5"></circle>
                <circle id="Oval-6" stroke="#990AE3" fill="#990AE3" cx="12.5" cy="16.5" r="1.5"></circle>
                <circle id="Oval-7" stroke="#990AE3" fill="#990AE3" cx="20.5" cy="11.5" r="2.5"></circle>
                <circle id="Oval-8" stroke="#990AE3" fill="#990AE3" cx="14.5" cy="1.5" r="1.5"></circle>
            </g>
        </g>
    </g>
</svg>